<svg width="36" height="36" viewBox="0 0 36 36" fill="none" xmlns="http://www.w3.org/2000/svg">
<path d="M28.3838 7.93914C26.4837 7.03521 24.4265 6.37913 22.2836 6.00007C22.2648 5.99945 22.2461 6.00305 22.2289 6.01061C22.2116 6.01817 22.1961 6.0295 22.1836 6.04381C21.9265 6.52493 21.6265 7.15185 21.4265 7.63297C19.1535 7.28306 16.842 7.28306 14.5691 7.63297C14.3691 7.13727 14.0691 6.52493 13.7977 6.04381C13.7834 6.01465 13.7405 6.00007 13.6977 6.00007C11.5548 6.37913 9.51184 7.03521 7.5975 7.93914C7.58322 7.93914 7.56893 7.95372 7.55465 7.9683C3.66882 13.9022 2.59737 19.6757 3.12595 25.3908C3.12595 25.42 3.14024 25.4491 3.16881 25.4637C5.74031 27.3882 8.21181 28.5546 10.6547 29.3273C10.6976 29.3419 10.7404 29.3273 10.7547 29.2981C11.3262 28.4963 11.8405 27.6507 12.2833 26.7613C12.3119 26.703 12.2833 26.6447 12.2262 26.6301C11.4119 26.3093 10.6404 25.9303 9.88328 25.4929C9.82614 25.4637 9.82614 25.3763 9.86899 25.3325C10.0261 25.2159 10.1833 25.0847 10.3404 24.968C10.369 24.9389 10.4119 24.9389 10.4404 24.9534C15.3549 27.2424 20.655 27.2424 25.5123 24.9534C25.5409 24.9389 25.5837 24.9389 25.6123 24.968C25.7694 25.0992 25.9266 25.2159 26.0837 25.3471C26.1409 25.3908 26.1409 25.4783 26.0694 25.5075C25.3266 25.9594 24.5408 26.3239 23.7265 26.6447C23.6694 26.6592 23.6551 26.7321 23.6694 26.7759C24.1265 27.6652 24.6408 28.5108 25.198 29.3127C25.2408 29.3273 25.2837 29.3419 25.3266 29.3273C27.7838 28.5546 30.2553 27.3882 32.8268 25.4637C32.8553 25.4491 32.8696 25.42 32.8696 25.3908C33.4982 18.7863 31.8267 13.0566 28.4409 7.9683C28.4266 7.95372 28.4124 7.93914 28.3838 7.93914ZM13.0262 21.9063C11.5548 21.9063 10.3261 20.5213 10.3261 18.8155C10.3261 17.1097 11.5262 15.7246 13.0262 15.7246C14.5406 15.7246 15.7406 17.1242 15.7263 18.8155C15.7263 20.5213 14.5263 21.9063 13.0262 21.9063ZM22.9836 21.9063C21.5122 21.9063 20.2836 20.5213 20.2836 18.8155C20.2836 17.1097 21.4836 15.7246 22.9836 15.7246C24.498 15.7246 25.698 17.1242 25.6837 18.8155C25.6837 20.5213 24.498 21.9063 22.9836 21.9063Z" fill="#FEFEFE"/>
</svg>
