<svg width="36" height="36" viewBox="0 0 36 36" fill="none" xmlns="http://www.w3.org/2000/svg">
<path d="M10.6663 7.00133C10.6659 7.79694 10.3671 8.5598 9.8355 9.1221C9.30392 9.68439 8.58314 10.0001 7.83174 9.99967C7.08034 9.99927 6.35987 9.68283 5.82881 9.11998C5.29776 8.55712 4.99962 7.79394 5 6.99833C5.00038 6.20273 5.29923 5.43987 5.83081 4.87757C6.3624 4.31527 7.08317 3.9996 7.83458 4C8.58598 4.0004 9.30645 4.31683 9.83751 4.87969C10.3686 5.44255 10.6667 6.20573 10.6663 7.00133ZM10.7513 12.221H5.085V31H10.7513V12.221ZM19.7041 12.221H14.0661V31H19.6474V21.1455C19.6474 15.6559 26.4045 15.1459 26.4045 21.1455V31H32V19.1057C32 9.85117 21.999 10.1962 19.6474 14.7409L19.7041 12.221Z" fill="#FEFEFE"/>
</svg>
