<svg width="36" height="36" viewBox="0 0 36 36" fill="none" xmlns="http://www.w3.org/2000/svg">
<path fill-rule="evenodd" clip-rule="evenodd" d="M26.9045 6.49264C27.2323 6.35129 27.5912 6.30255 27.9437 6.35147C28.2962 6.40039 28.6295 6.54519 28.9088 6.7708C29.1881 6.99641 29.4033 7.29458 29.532 7.63428C29.6606 7.97398 29.698 8.34278 29.6403 8.70231L26.6311 27.3976C26.3392 29.2009 24.4075 30.2351 22.7928 29.3368C21.4421 28.5853 19.436 27.4274 17.6316 26.2193C16.7294 25.6146 13.9657 23.6781 14.3054 22.3001C14.5972 21.1219 19.241 16.6944 21.8945 14.0621C22.9361 13.0279 22.4611 12.4313 21.2311 13.3826C18.1769 15.7445 13.2731 19.3362 11.6518 20.3473C10.2215 21.2387 9.47587 21.3909 8.58427 21.2387C6.95764 20.9615 5.44909 20.5321 4.21784 20.0089C2.55405 19.3022 2.63499 16.9594 4.21651 16.2772L26.9045 6.49264Z" fill="#FEFEFE"/>
</svg>
